<svg width="1012" height="136" viewBox="0 0 1012 136" fill="none" xmlns="http://www.w3.org/2000/svg">
<path d="M86.4387 110.629L101.395 124.72C108.953 131.836 118.937 135.803 129.315 135.803H170.725C181.047 135.803 190.974 131.883 198.513 124.842L213.958 110.422C227.251 98.0035 244.773 91.0941 262.964 91.0941H277.534C289.878 91.0941 299.889 81.0824 299.889 68.7394V67.8088C299.889 55.4658 289.878 45.4541 277.534 45.4541H266.085C256.806 45.4541 248.496 51.1885 245.196 59.8558L239.142 75.7617C235.843 84.4291 227.533 90.1634 218.254 90.1634H81.635C72.3566 90.1634 64.0464 84.4291 60.7468 75.7617L54.6928 59.8558C51.3932 51.1885 43.083 45.4541 33.8046 45.4541H22.3547C10.0117 45.4541 0 55.4658 0 67.8088V68.7394C0 81.0824 10.0117 91.0941 22.3547 91.0941H37.2171C55.5201 91.0941 73.1274 98.0787 86.4481 110.629H86.4387Z" fill="#F16C63"/>
<path d="M228.331 45.4543C233.426 45.4543 236.387 39.7011 233.426 35.5555L216.035 11.2172C211.081 4.27959 203.081 0.162109 194.555 0.162109H105.465C96.9762 0.162109 89.0139 4.24198 84.0504 11.1232L66.4618 35.5273C63.4818 39.6635 66.4336 45.4449 71.5382 45.4449H228.322L228.331 45.4543Z" fill="#F16C63"/>
<path d="M405.675 34.7646C392.016 34.7646 379.729 41.7963 371.532 53.1052V3.22552C371.532 1.05398 369.426 -0.487723 367.349 0.142119L361.793 1.88124C357.506 3.21613 354.564 7.20199 354.564 11.7237V114.924C354.564 118.571 352.42 121.824 349.271 123.356C346.761 124.559 345.191 127.173 345.191 129.946C345.191 131.892 346.865 133.462 348.811 133.264C358.456 132.39 368.731 127.774 371.137 116.86C379.137 128.376 391.621 135.774 405.684 135.774C430.258 135.774 450.14 113.147 450.14 85.2647C450.14 57.3825 430.258 34.7552 405.684 34.7552L405.675 34.7646ZM402.93 125.283C385.586 125.283 371.729 107.337 371.729 85.2835C371.729 63.2297 385.586 45.2839 402.93 45.2839C420.274 45.2839 433.961 63.2579 433.961 85.2835C433.961 107.309 420.105 125.283 402.93 125.283Z" fill="#023642"/>
<path d="M1007.72 123.374C1004.54 121.833 1002.43 118.589 1002.43 114.942V11.742C1002.43 7.22031 999.483 3.24385 995.159 1.89956L989.603 0.160444C987.526 -0.478798 985.448 1.06293 985.448 3.24387V53.1236C977.251 41.8052 964.964 34.7829 951.305 34.7829C926.732 34.7829 906.821 57.4102 906.821 85.2925C906.821 113.175 926.741 135.802 951.305 135.802C965.331 135.802 977.815 128.404 985.815 116.888C988.259 127.802 998.506 132.418 1008.14 133.292C1008.24 133.292 1008.38 133.33 1008.48 133.33C1010.28 133.33 1011.76 131.826 1011.76 129.983C1011.76 127.2 1010.22 124.596 1007.71 123.393L1007.72 123.374ZM954.022 125.283C936.884 125.283 923.028 107.337 923.028 85.2831C923.028 63.2292 936.884 45.2834 954.022 45.2834C971.159 45.2834 985.251 63.2574 985.251 85.2831C985.251 107.309 971.394 125.283 954.022 125.283Z" fill="#023642"/>
<path d="M618.308 44.138C627.454 44.138 634.872 48.1239 640.803 54.6855C644.216 58.4646 650.204 58.3706 653.757 54.7231C654.444 54.0181 654.519 52.8806 653.889 52.1192C645.146 41.4025 632.54 34.7656 618.308 34.7656C592.362 34.7656 568.56 55.6162 568.56 85.2751C568.56 114.934 592.362 135.785 618.308 135.785C632.634 135.785 645.306 128.875 653.908 118.205C654.425 117.566 654.378 116.626 653.814 116.025L653.682 115.893C651.37 113.43 647.553 113.468 645.109 115.799C637.664 122.896 628.066 127.221 618.298 127.221C598.783 127.221 586.092 106.53 586.092 85.2751C586.092 62.0744 600.352 44.138 618.298 44.138H618.308Z" fill="#023642"/>
<path d="M895.917 65.9663C895.917 48.6221 881.093 34.7656 859.434 34.7656C828.402 34.7656 808.52 59.9405 808.313 85.2751C808.313 110.45 827.425 135.785 859.029 135.785C873.121 135.785 885.633 129.11 894.197 118.741C894.977 117.801 894.902 116.41 894.084 115.508C891.734 112.932 887.692 112.678 885.163 115.084C877.878 122.022 868.731 126.45 859.029 126.45C849.328 126.45 836.402 119.625 830.743 105.364C848.717 103.221 895.917 94.6475 895.917 65.9663ZM828.6 97.7686C821.606 72.4245 834.456 44.138 859.434 44.138C872.322 44.138 879.918 53.8771 879.918 65.9663C879.918 85.8862 844.402 94.8544 828.6 97.7686Z" fill="#023642"/>
<path d="M556.104 123.394C552.72 122.002 550.417 118.731 550.417 114.942V40.1228C550.417 38.2803 548.875 36.9078 547.174 36.9078C546.835 36.9078 546.534 36.9454 546.205 37.0394L540.584 38.7786C536.231 40.1134 533.251 44.0993 533.251 48.621V89.1941C533.251 106.736 519.028 124.108 503.226 124.108C487.423 124.108 481.764 111.624 481.764 95.4173V40.1134C481.764 38.2709 480.26 36.8984 478.549 36.8984C478.211 36.8984 477.91 36.936 477.581 37.03L472.025 38.7692C467.719 40.1134 464.796 44.0993 464.796 48.6116V96.9778C464.796 119.972 479.019 135.774 500.283 135.774C513.538 135.774 526.022 126.806 533.458 114.924C534.934 126.646 544.664 131.779 554.478 133.086C557.289 133.462 559.808 131.346 559.808 128.517C559.808 126.186 558.276 124.268 556.123 123.375L556.104 123.394Z" fill="#023642"/>
<path d="M713.028 79.6158C711.364 77.3408 711.468 74.2198 713.282 72.0671L741.249 38.7231C741.851 38.0086 741.343 36.9088 740.403 36.9088H737.216C733.305 36.9088 729.602 38.6385 727.082 41.6373L683.642 93.4817V3.29216C683.642 1.36503 681.959 -0.270689 680.06 0.0489325C679.919 0.0771344 679.769 0.105351 679.628 0.152354L674.006 1.89147C669.654 3.22636 666.674 7.21223 666.674 11.7339V132.146C666.674 132.861 667.257 133.444 667.971 133.444H682.345C683.059 133.444 683.642 132.861 683.642 132.146V115.846C683.642 110.346 685.578 105.026 689.113 100.814L697.301 91.0657C698.1 90.1163 699.585 90.1633 700.319 91.1692L729.216 130.924C730.363 132.504 732.206 133.444 734.161 133.444H750.452C751.232 133.444 751.693 132.551 751.223 131.921L713.019 79.6064L713.028 79.6158Z" fill="#023642"/>
<path d="M798.884 125.697C796.844 125.932 794.804 126.054 793.112 126.054C782.564 126.054 777.112 119.023 777.112 109.086V3.23516C777.112 1.22343 775.307 -0.243074 773.399 0.0577458C773.333 0.0577458 773.267 0.0953563 773.164 0.0953563C773.098 0.132959 772.994 0.132937 772.929 0.161139L767.373 1.90026H767.335C763.086 3.27275 760.134 7.22101 760.134 11.7427V108.315C760.134 129.777 773.596 136 791.128 136C794.268 136 800.059 135.304 803.781 134.139C804.872 133.8 805.596 132.776 805.596 131.629C805.596 128.038 802.456 125.283 798.884 125.688V125.697Z" fill="#023642"/>
</svg>
